<svg width="370" height="370" viewBox="0 0 370 370" fill="none" xmlns="http://www.w3.org/2000/svg">
<circle cx="185" cy="185" r="185" fill="#222222"/>
<path d="M162.487 3.90652C143.729 6.25247 123.212 12.7038 104.161 22.0876C48.4719 49.5058 9.9295 104.929 3.62788 166.216C1.86929 183.811 4.06753 213.282 8.464 230.437C23.8517 291.284 70.7474 340.842 130.833 359.757C191.797 379.111 260.235 364.155 307.571 321.195C364.725 269.291 383.19 189.969 355.053 117.685C332.045 59.0361 278.847 16.0761 215.391 5.07949C203.521 3.0268 174.065 2.44031 162.487 3.90652ZM203.521 24.8734C266.684 32.0578 320.321 76.4841 338.932 137.039C357.104 195.541 341.424 256.535 297.312 299.788C213.926 381.456 74.4111 349.2 34.2567 239.234C26.4896 217.827 22.8258 187.916 25.4637 166.803C32.3515 110.793 66.644 62.9949 116.91 39.3889C144.901 26.3396 173.478 21.5011 203.521 24.8734Z" fill="white"/>
<path d="M159.556 31.4713C124.677 38.0693 99.3245 51.5584 74.5577 76.7773C51.8426 99.9435 39.3859 123.403 32.7912 155.513C28.5412 175.893 29.274 201.992 34.8429 223.399C48.9116 277.795 89.066 319.142 143.436 335.124C159.556 339.816 190.918 341.575 209.823 338.79C283.244 328.086 340.691 261.813 340.837 187.623C340.837 143.05 324.717 104.342 293.209 73.6983C272.692 53.7578 250.417 41.1483 223.305 34.1105C205.28 29.5652 176.702 28.2456 159.556 31.4713ZM192.53 77.657C195.607 79.2699 198.685 81.3226 199.271 82.2023C200.004 83.3753 199.711 83.5219 198.245 82.7888C196.633 81.9091 196.633 82.0557 197.806 83.3753C199.124 84.8415 200.736 84.5483 205.426 81.9091L211.435 78.3902L215.391 81.4692C220.374 85.1347 223.159 92.3192 223.012 101.85V109.181L221.107 100.823C218.909 90.2665 215.538 84.9881 211.141 84.9881C206.892 84.9881 201.616 93.6388 200.443 103.023L199.418 109.767L204.693 110.647C207.478 111.233 210.995 111.38 212.46 111.087C217.883 110.06 216.857 101.263 210.702 93.7854C204.547 86.601 207.624 87.1874 214.366 94.5185C218.909 99.357 220.374 102.289 220.374 105.955C220.374 109.914 221.107 111.087 224.771 112.406C234.882 116.218 233.124 127.508 220.96 136.306C213.34 141.731 210.555 141.437 217.883 136.012C220.521 133.96 223.891 129.854 225.503 127.068C227.848 122.67 227.995 121.497 226.383 119.591C223.305 115.925 222.572 116.658 220.521 124.723C219.202 129.561 216.857 133.96 213.486 137.185C209.969 140.851 208.797 143.05 209.383 145.103C210.262 148.035 207.917 153.754 205.133 155.66C201.909 157.859 193.116 156.686 185.495 153.167C181.245 151.114 178.021 148.915 178.461 148.182C180.366 145.249 175.97 144.956 172.892 147.889C164.392 155.953 155.013 147.595 154.134 131.174C153.841 127.948 154.28 123.989 154.72 122.377C155.599 120.031 154.867 119.004 151.056 117.245C145.487 114.606 144.315 109.474 147.832 102.583C150.763 96.8644 162.194 89.3868 166.297 90.4131C168.789 91.1462 169.082 90.7063 168.203 87.3341C166.884 81.7624 168.642 76.3375 172.453 74.7246C176.849 72.8185 185.642 74.1381 192.53 77.657ZM251.149 203.312C259.503 207.124 265.072 212.989 268.003 221.199C272.692 234.835 269.908 249.497 260.675 258.734C253.934 265.479 246.313 268.265 234.589 268.265H226.383L225.943 285.419L225.503 302.721H213.779H202.055L201.616 252.87C201.469 225.451 201.616 202.139 202.055 200.966C202.642 199.499 207.038 199.206 223.745 199.646C240.891 200.086 245.727 200.819 251.149 203.312ZM133.031 234.835C127.022 252.723 122.186 267.678 122.186 267.825C122.186 268.118 127.755 268.265 134.496 268.265C146.806 268.265 148.565 268.998 148.565 274.276C148.565 275.009 141.97 275.596 134.057 275.596H119.548L115.298 288.352C111.488 299.788 110.609 301.255 107.238 301.694L103.428 302.134L112.514 273.836C135.669 201.992 135.669 202.285 139.919 202.285H143.875L133.031 234.835ZM169.668 268.705L180.513 302.134L176.702 301.694C173.185 301.255 172.306 299.202 160.289 263.133L147.539 225.012L141.091 244.366C134.936 263.133 134.496 263.866 130.686 263.866H126.729L137.281 233.076L147.832 202.139L153.401 218.707C156.332 227.797 163.806 250.377 169.668 268.705ZM169.082 300.815C169.082 301.548 167.47 301.988 165.565 301.988C162.487 301.988 161.461 300.815 159.41 293.924L156.918 286.006L142.996 285.566C130.539 285.126 128.927 284.833 126.876 281.754L124.824 278.528H139.479H154.28L149.005 262.986C144.169 248.471 143.875 247.005 145.634 241.286L147.539 235.275L158.237 267.532C164.246 285.273 169.082 300.228 169.082 300.815ZM124.677 284.247C125.996 286.299 125.85 288.645 124.238 294.51C122.333 300.961 121.453 301.988 118.376 301.988C116.031 301.988 114.859 301.255 115.152 300.082C117.057 293.19 121.453 281.461 122.04 281.461C122.626 281.461 123.652 282.634 124.677 284.247Z" fill="white"/>
<path d="M173.771 79.4165C170.401 82.7888 171.72 85.428 176.116 84.1084C178.314 83.5219 183.737 82.6422 188.133 82.2023L196.193 81.3226L191.211 79.4165C184.909 77.2172 176.116 77.0706 173.771 79.4165Z" fill="white"/>
<path d="M175.677 86.3077C173.039 87.4807 173.478 88.2138 180.513 95.3982L188.426 103.316L192.676 98.4773C197.659 93.0523 198.099 88.6537 194.142 86.4543C190.771 84.6949 179.926 84.6949 175.677 86.3077Z" fill="white"/>
<path d="M156.479 97.451C151.349 102.729 149.884 105.075 150.324 108.154C151.056 114.606 154.427 112.7 157.211 104.342C158.677 100.237 161.022 95.3983 162.487 93.7854C167.616 88.0672 163.073 90.9996 156.479 97.451Z" fill="white"/>
<path d="M164.392 97.7442C161.168 101.41 157.358 109.327 157.358 112.26C157.358 114.166 158.237 114.459 162.927 113.579C165.858 112.993 170.401 111.673 173.039 110.647C177.435 108.741 177.582 108.301 176.409 104.049C173.918 95.2516 168.935 92.6124 164.392 97.7442Z" fill="white"/>
<path d="M186.228 112.406C184.47 114.166 185.202 118.418 187.254 119.151C190.038 120.177 193.116 116.512 191.944 113.579C191.064 111.38 187.84 110.647 186.228 112.406Z" fill="white"/>
<path d="M204.693 119.444C199.124 121.79 198.685 124.723 202.788 131.467C206.159 137.185 208.504 137.479 212.754 132.933C215.391 130.147 220.374 120.47 220.374 117.978C220.374 116.365 209.236 117.391 204.693 119.444Z" fill="white"/>
<path d="M164.685 120.031C162.634 120.617 160.875 122.083 160.582 123.403C159.996 126.482 164.979 136.159 168.935 139.825C171.866 142.464 172.013 142.464 173.478 138.358C174.504 136.012 175.677 131.32 176.263 127.948C177.435 122.083 177.289 121.79 173.039 120.177C170.694 119.444 168.642 118.711 168.496 118.858C168.349 119.004 166.737 119.444 164.685 120.031Z" fill="white"/>
<path d="M156.039 128.975C155.892 133.96 161.022 144.956 163.953 145.983C165.272 146.569 167.03 146.276 168.056 145.25C169.228 144.077 168.349 142.17 164.392 138.065C161.315 135.133 158.384 131.027 157.504 128.975L156.039 125.309V128.975Z" fill="white"/>
<path d="M184.176 132.2C180.073 136.745 178.901 140.704 180.952 143.05C183.004 145.543 200.736 145.836 202.202 143.49C203.228 141.731 191.504 128.975 188.866 128.975C187.987 128.975 185.788 130.441 184.176 132.2Z" fill="white"/>
<path d="M196.926 147.595C193.262 148.768 187.694 149.355 184.47 148.915L178.608 148.035L183.151 150.088C194.288 155.073 205.426 153.754 204.107 147.889C203.521 145.983 202.642 145.983 196.926 147.595Z" fill="white"/>
<path d="M205.719 251.257C205.719 298.029 205.719 299.055 208.65 299.055C211.435 299.055 211.581 298.029 211.581 277.209V255.362L227.408 254.922C244.555 254.336 248.805 252.723 253.641 245.392C256.718 240.553 256.865 229.41 253.641 223.399C250.124 216.801 243.236 214.015 229.753 214.015C218.615 214.015 218.469 214.015 221.107 216.947C223.012 219 225.65 219.88 230.193 219.88C245.727 219.88 253.494 228.97 248.072 240.847C245.581 246.272 240.744 247.738 225.357 247.738H211.435L211.874 228.97L212.314 210.349H227.702C244.701 210.496 250.124 212.402 255.986 220.173C260.235 225.745 260.968 237.621 257.744 244.952C255.253 250.23 255.253 250.963 257.304 253.163C259.503 255.216 259.942 255.069 262.141 251.55C270.787 238.354 266.684 217.094 253.787 208.59C247.925 204.631 246.753 204.485 226.676 204.045L205.719 203.458V251.257Z" fill="white"/>
<path d="M215.978 230.583C215.978 243.779 216.124 244.805 218.909 244.805C221.546 244.805 221.84 243.779 221.84 233.369C221.84 223.692 221.4 221.346 218.909 219.147C215.978 216.507 215.978 216.654 215.978 230.583Z" fill="white"/>
<path d="M226.236 234.542V244.805H232.831C237.96 244.805 240.451 243.926 243.089 241.14C247.193 237.181 247.632 234.542 245.141 229.703C242.65 225.012 241.038 224.278 233.27 224.278H226.236V234.542Z" fill="white"/>
<path d="M246.02 255.802C243.529 256.975 236.641 257.855 230.046 258.001H218.469L221.84 261.667C225.65 265.772 232.245 266.359 243.822 263.72C253.055 261.667 257.744 258.441 255.399 255.655C253.348 253.163 251.736 253.163 246.02 255.802Z" fill="white"/>
<path d="M215.978 279.701C215.978 298.029 216.124 299.055 218.909 299.055C221.693 299.055 221.84 298.029 221.84 282.487C221.84 267.678 221.546 265.479 218.909 263.133C215.978 260.494 215.978 260.641 215.978 279.701Z" fill="white"/>
</svg>
